<svg xmlns="http://www.w3.org/2000/svg" viewBox="0 0 512 512" role="img" aria-labelledby="title desc">
  <title id="title">Liverpool match store icon</title>
  <desc id="desc">A white football and LFC initials on a red shield</desc>
  <defs>
    <linearGradient id="bg" x1="80" y1="40" x2="430" y2="470" gradientUnits="userSpaceOnUse">
      <stop stop-color="#e31b3d"/>
      <stop offset="1" stop-color="#8f001d"/>
    </linearGradient>
    <filter id="shadow" x="-20%" y="-20%" width="140%" height="150%">
      <feDropShadow dx="0" dy="12" stdDeviation="14" flood-color="#42000e" flood-opacity=".35"/>
    </filter>
  </defs>
  <rect width="512" height="512" rx="112" fill="#f5f1e8"/>
  <path d="M96 72h320v185c0 103-64 165-160 202C160 422 96 360 96 257V72Z" fill="url(#bg)" filter="url(#shadow)"/>
  <path d="M116 94h280v161c0 88-51 142-140 179-89-37-140-91-140-179V94Z" fill="none" stroke="#fff" stroke-opacity=".32" stroke-width="5"/>
  <g transform="translate(256 211)" fill="none" stroke="#fff" stroke-width="10" stroke-linecap="round" stroke-linejoin="round">
    <circle r="88"/>
    <path d="m-25-17 25-21 25 21-10 31h-30Z" fill="#fff" stroke-width="6"/>
    <path d="m-66-57 41 40M66-57 25-17M-86 22l71-8M86 22l-71-8M-44 75l29-61M44 75 15 14"/>
  </g>
  <text x="256" y="365" fill="#fff" font-family="Arial, Helvetica, sans-serif" font-size="74" font-weight="800" letter-spacing="12" text-anchor="middle">LFC</text>
  <text x="256" y="401" fill="#fff" fill-opacity=".8" font-family="Arial, Helvetica, sans-serif" font-size="18" font-weight="700" letter-spacing="5" text-anchor="middle">MATCHES</text>
</svg>
